<svg id="Layer_1" enable-background="new 0 0 495.876 495.876" height="48" viewBox="0 0 495.876 495.876" width="48" xmlns="http://www.w3.org/2000/svg"><g><path d="m406.216 70.638-61.061-59.59c-22.826-22.273-60.553-8.636-64.967 20.984l-55.292-.063c-50.5-.007-105.011 29.789-128.281 76.329-47.382 94.767-16.456 269.535 12.085 372.056 1.893 9.146 9.716 15.522 19.071 15.522 9.401 0 17.254-6.438 19.098-15.657.066-.329-1.066 7.327 26.108-177.582 6.755-33.609 21.64-65.513 43.055-92.282 15.851-19.814 38.749-31.939 63.738-34v10.016c0 33.345 41.092 50.37 65.385 26.663l61.061-59.59c23.424-22.86 23.426-59.942 0-82.806zm-11.176 71.356-61.061 59.59c-13.919 13.584-38.209 4.297-38.209-15.212v-18.33c0-4.107-3.146-8-8.353-8-32.815 0-63.37 14.681-83.88 40.319-23.048 28.81-39.055 63.16-46.291 99.339-.066.329 1.073-7.373-26.102 177.537-.533 2.292-2.334 2.64-3.375 2.64-1.064 0-2.922-.363-3.409-2.794-.131.026.061.08-.391-1.528-27.126-96.8-57.861-270.465-13.045-360.1 19.232-38.464 66.593-67.484 113.952-67.484l54.893.063v24.009c0 4.418 3.582 8 8 8s8-3.582 8-8c0-15.633 0-19.395 0-34.33 0-19.483 24.277-28.811 38.209-15.212l61.061 59.589c16.984 16.573 16.992 43.325.001 59.904z"/><path d="m375.007 264.085c-4.337-.827-8.528 2.023-9.354 6.364-12.233 64.305-74.728 107.152-139.306 95.522-4.354-.785-8.508 2.106-9.292 6.455s2.106 8.508 6.455 9.292c73.878 13.311 144-35.423 157.861-108.278.826-4.342-2.023-8.53-6.364-9.355z"/></g></svg>