<?xml version="1.0" encoding="iso-8859-1"?>
<!-- Generator: Adobe Illustrator 19.0.0, SVG Export Plug-In . SVG Version: 6.00 Build 0)  -->
<svg  width="90" height="70" version="1.1" id="Capa_1" xmlns="http://www.w3.org/2000/svg" xmlns:xlink="http://www.w3.org/1999/xlink" x="0px" y="0px"
	 viewBox="0 0 512 512" style="enable-background:new 0 0 512 512;" xml:space="preserve">
<g>
	<g>
		<path d="M339.981,94.559c-0.597-12.567-10.922-22.413-23.505-22.413h-49.358v-8.532C267.117,28.537,238.581,0,203.505,0
			s-63.613,28.537-63.613,63.613v8.532H90.533c-12.582,0-22.906,9.845-23.505,22.413L52.523,399.171
			c-0.31,6.49,1.99,12.655,6.474,17.358c4.485,4.703,10.533,7.293,17.032,7.293h55.331c4.143,0,7.5-3.357,7.5-7.5
			s-3.357-7.5-7.5-7.5H76.028c-2.356,0-4.55-0.939-6.176-2.645c-1.626-1.706-2.459-3.94-2.348-6.294L82.011,95.271
			c0.218-4.557,3.961-8.126,8.522-8.126h49.358v10.281c-9.307,3.139-16.031,11.946-16.031,22.3
			c0,12.976,10.557,23.532,23.532,23.532c12.975,0,23.532-10.557,23.532-23.532c0-10.354-6.724-19.16-16.032-22.3v-10.28h97.226
			v10.281c-9.308,3.139-16.032,11.946-16.032,22.3c0,12.976,10.557,23.532,23.532,23.532c12.975,0,23.532-10.557,23.532-23.532
			c0-10.354-6.724-19.16-16.032-22.3V87.146h49.358c4.563,0,8.306,3.569,8.522,8.126l7.289,153.066
			c0.197,4.138,3.729,7.324,7.848,7.135c4.138-0.196,7.332-3.711,7.135-7.848L339.981,94.559z M155.924,119.726
			c0,4.705-3.827,8.532-8.532,8.532c-4.705,0-8.532-3.827-8.532-8.532c0-4.705,3.827-8.532,8.532-8.532
			C152.097,111.194,155.924,115.021,155.924,119.726z M252.117,72.145h-97.226v-8.532h0.001C154.892,36.807,176.7,15,203.505,15
			s48.612,21.808,48.612,48.613V72.145z M268.149,119.726c0,4.705-3.827,8.532-8.532,8.532c-4.705,0-8.532-3.827-8.532-8.532
			c0-4.705,3.827-8.532,8.532-8.532C264.322,111.194,268.149,115.021,268.149,119.726z"/>
	</g>
</g>
<g>
	<g>
		<path d="M371.843,336.678H179.456c-12.976,0-23.532,10.557-23.532,23.532v128.258c0,12.976,10.557,23.532,23.532,23.532h192.387
			c12.977,0,23.533-10.557,23.533-23.532V360.21C395.376,347.234,384.819,336.678,371.843,336.678z M371.843,497H179.456
			c-4.705,0-8.532-3.827-8.532-8.532V360.21c0-4.705,3.827-8.532,8.532-8.532h192.387c4.705,0,8.533,3.827,8.533,8.532v128.258h0
			C380.376,493.173,376.548,497,371.843,497z"/>
	</g>
</g>
<g>
	<g>
		<path d="M219.537,384.775h-8.017c-12.976,0-23.532,10.557-23.532,23.532c0,12.975,10.557,23.532,23.532,23.532h8.017
			c12.976,0,23.532-10.557,23.532-23.532C243.069,395.331,232.512,384.775,219.537,384.775z M219.537,416.839h-8.017
			c-4.705,0-8.532-3.827-8.532-8.532s3.827-8.532,8.532-8.532h8.017c4.705,0,8.532,3.827,8.532,8.532
			S224.242,416.839,219.537,416.839z"/>
	</g>
</g>
<g>
	<g>
		<path d="M339.778,384.774c-6.19,0-11.827,2.406-16.032,6.328c-4.206-3.922-9.842-6.328-16.032-6.328
			c-12.976,0-23.532,10.557-23.532,23.532c0,12.975,10.557,23.532,23.532,23.532c6.19,0,11.827-2.406,16.032-6.328
			c4.206,3.922,9.842,6.328,16.032,6.328c12.976,0,23.532-10.557,23.532-23.532C363.31,395.331,352.754,384.774,339.778,384.774z
			 M307.714,416.839c-4.705,0-8.532-3.827-8.532-8.532s3.827-8.532,8.532-8.532s8.532,3.827,8.532,8.532
			S312.419,416.839,307.714,416.839z M339.778,416.839c-4.705,0-8.532-3.827-8.532-8.532s3.827-8.532,8.532-8.532
			s8.532,3.827,8.532,8.532S344.484,416.839,339.778,416.839z"/>
	</g>
</g>
<g>
	<g>
		<path d="M211.521,448.903h-16.032c-4.143,0-7.5,3.357-7.5,7.5s3.357,7.5,7.5,7.5h16.032c4.143,0,7.5-3.357,7.5-7.5
			S215.663,448.903,211.521,448.903z"/>
	</g>
</g>
<g>
	<g>
		<path d="M307.714,448.903h-16.032c-4.143,0-7.5,3.357-7.5,7.5s3.357,7.5,7.5,7.5h16.032c4.143,0,7.5-3.357,7.5-7.5
			S311.857,448.903,307.714,448.903z"/>
	</g>
</g>
<g>
	<g>
		<path d="M259.617,448.903h-16.032c-4.143,0-7.5,3.357-7.5,7.5s3.357,7.5,7.5,7.5h16.032c4.143,0,7.5-3.357,7.5-7.5
			S263.76,448.903,259.617,448.903z"/>
	</g>
</g>
<g>
	<g>
		<path d="M355.811,448.903h-16.032c-4.143,0-7.5,3.357-7.5,7.5s3.357,7.5,7.5,7.5h16.032c4.143,0,7.5-3.357,7.5-7.5
			S359.953,448.903,355.811,448.903z"/>
	</g>
</g>
<g>
	<g>
		<path d="M435.973,272.549H243.585c-12.976,0-23.532,10.557-23.532,23.532v16.033c0,1.989,0.79,3.896,2.196,5.304
			c1.407,1.406,3.314,2.196,5.304,2.196l216.952-0.001v17.064h-24.564c-4.143,0-7.5,3.357-7.5,7.5s3.357,7.5,7.5,7.5h24.564v72.661
			c0,4.705-3.827,8.532-8.532,8.532h-16.032c-4.143,0-7.5,3.357-7.5,7.5s3.357,7.5,7.5,7.5h16.032
			c12.976,0,23.532-10.557,23.532-23.532V296.081C459.505,283.105,448.948,272.549,435.973,272.549z M444.505,304.613
			l-209.452,0.001v-8.533c0-4.705,3.827-8.532,8.532-8.532h192.388c4.705,0,8.532,3.827,8.532,8.532V304.613z"/>
	</g>
</g>
<g>
</g>
<g>
</g>
<g>
</g>
<g>
</g>
<g>
</g>
<g>
</g>
<g>
</g>
<g>
</g>
<g>
</g>
<g>
</g>
<g>
</g>
<g>
</g>
<g>
</g>
<g>
</g>
<g>
</g>
</svg>
